<svg class="svg-icon" style="width: 1em;height: 1em;vertical-align: middle;fill: currentColor;overflow: hidden;" viewBox="0 0 1024 1024" version="1.1" xmlns="http://www.w3.org/2000/svg"><path d="M170.666667 746.666667a21.333333 21.333333 0 0 1-21.333334-21.333334V298.666667a21.333333 21.333333 0 0 1 42.666667 0v426.666666a21.333333 21.333333 0 0 1-21.333333 21.333334zM256 661.333333a21.333333 21.333333 0 0 1-21.333333-21.333333V298.666667a21.333333 21.333333 0 0 1 42.666666 0v341.333333a21.333333 21.333333 0 0 1-21.333333 21.333333zM341.333333 661.333333a21.333333 21.333333 0 0 1-21.333333-21.333333V298.666667a21.333333 21.333333 0 0 1 42.666667 0v341.333333a21.333333 21.333333 0 0 1-21.333334 21.333333zM426.666667 661.333333a21.333333 21.333333 0 0 1-21.333334-21.333333V298.666667a21.333333 21.333333 0 0 1 42.666667 0v341.333333a21.333333 21.333333 0 0 1-21.333333 21.333333zM512 746.666667a21.333333 21.333333 0 0 1-21.333333-21.333334V298.666667a21.333333 21.333333 0 0 1 42.666666 0v426.666666a21.333333 21.333333 0 0 1-21.333333 21.333334zM597.333333 661.333333a21.333333 21.333333 0 0 1-21.333333-21.333333V298.666667a21.333333 21.333333 0 0 1 42.666667 0v341.333333a21.333333 21.333333 0 0 1-21.333334 21.333333zM682.666667 661.333333a21.333333 21.333333 0 0 1-21.333334-21.333333V298.666667a21.333333 21.333333 0 0 1 42.666667 0v341.333333a21.333333 21.333333 0 0 1-21.333333 21.333333zM768 661.333333a21.333333 21.333333 0 0 1-21.333333-21.333333V298.666667a21.333333 21.333333 0 0 1 42.666666 0v341.333333a21.333333 21.333333 0 0 1-21.333333 21.333333zM853.333333 746.666667a21.333333 21.333333 0 0 1-21.333333-21.333334V298.666667a21.333333 21.333333 0 0 1 42.666667 0v426.666666a21.333333 21.333333 0 0 1-21.333334 21.333334zM256 746.666667a20.053333 20.053333 0 0 1-14.933333-6.4 20.053333 20.053333 0 0 1-6.4-14.933334 21.376 21.376 0 0 1 42.666666 0c0 5.546667-2.133333 11.093333-6.4 14.933334a20.053333 20.053333 0 0 1-14.933333 6.4zM341.333333 746.666667c-5.546667 0-10.666667-2.133333-14.933333-5.973334a21.674667 21.674667 0 0 1-0.426667-30.293333c8.96-8.533333 22.613333-8.106667 30.293334 0 4.266667 3.84 6.4 9.386667 6.4 14.933333 0 5.546667-2.133333 11.093333-6.4 14.933334a20.053333 20.053333 0 0 1-14.933334 6.4zM426.666667 746.666667a20.053333 20.053333 0 0 1-14.933334-6.4 20.053333 20.053333 0 0 1-6.4-14.933334 21.333333 21.333333 0 0 1 5.973334-14.933333c8.106667-8.106667 22.613333-8.106667 30.293333 0 4.266667 3.84 6.4 9.386667 6.4 14.933333 0 5.546667-2.133333 11.093333-6.4 14.933334a20.053333 20.053333 0 0 1-14.933333 6.4zM597.333333 746.666667c-5.546667 0-10.666667-2.133333-14.933333-5.973334a21.674667 21.674667 0 0 1-0.426667-30.293333c8.96-8.533333 22.613333-8.106667 30.293334 0 4.266667 3.84 6.4 9.386667 6.4 14.933333 0 5.546667-2.133333 11.093333-6.4 14.933334a20.053333 20.053333 0 0 1-14.933334 6.4zM682.666667 746.666667a20.053333 20.053333 0 0 1-14.933334-6.4 20.053333 20.053333 0 0 1-6.4-14.933334 21.376 21.376 0 0 1 42.666667 0c0 5.546667-2.133333 11.093333-6.4 14.933334a20.053333 20.053333 0 0 1-14.933333 6.4zM768 746.666667c-5.546667 0-10.666667-2.133333-14.933333-5.973334a22.4 22.4 0 0 1-6.4-15.36 21.333333 21.333333 0 0 1 5.973333-14.933333c8.96-8.533333 22.613333-8.106667 30.293333 0 4.266667 3.84 6.4 9.386667 6.4 14.933333 0 5.546667-2.133333 11.093333-6.4 14.933334a20.053333 20.053333 0 0 1-14.933333 6.4zM42.666667 320A21.333333 21.333333 0 0 1 21.333333 298.666667V170.666667a21.333333 21.333333 0 0 1 21.333334-21.333334h128a21.333333 21.333333 0 0 1 0 42.666667H64V298.666667a21.333333 21.333333 0 0 1-21.333333 21.333333zM170.666667 874.666667H42.666667a21.333333 21.333333 0 0 1-21.333334-21.333334v-128a21.333333 21.333333 0 0 1 42.666667 0v106.666667H170.666667a21.333333 21.333333 0 0 1 0 42.666667zM981.333333 320a21.333333 21.333333 0 0 1-21.333333-21.333333V192H853.333333a21.333333 21.333333 0 0 1 0-42.666667h128a21.333333 21.333333 0 0 1 21.333334 21.333334v128a21.333333 21.333333 0 0 1-21.333334 21.333333zM981.333333 874.666667h-128a21.333333 21.333333 0 0 1 0-42.666667h106.666667V725.333333a21.333333 21.333333 0 0 1 42.666667 0v128a21.333333 21.333333 0 0 1-21.333334 21.333334z"  /></svg>