<svg width="51" height="32" viewBox="0 0 51 32" fill="none" xmlns="http://www.w3.org/2000/svg">
<rect width="27.5675" height="2.7747" rx="1" fill="#E5E7EB"/>
<rect y="5.54953" width="50.9999" height="2.7747" rx="1" fill="#E5E7EB"/>
<rect y="12.4862" width="50.9999" height="19.4229" rx="2" fill="#F3F4F6"/>
<path d="M8.92431 26.3597L9.04504 23.1803L6.23798 24.8856L5.51358 23.6717L8.47156 22.1976L5.51358 20.7236L6.23798 19.5097L9.04504 21.2149L8.92431 18.0356H10.3731L10.2524 21.2149L13.0594 19.5097L13.7838 20.7236L10.8259 22.1976L13.7838 23.6717L13.0594 24.8856L10.2524 23.1803L10.3731 26.3597H8.92431Z" fill="#111827"/>
<path d="M19.9515 26.3597L20.0722 23.1803L17.2651 24.8856L16.5407 23.6717L19.4987 22.1976L16.5407 20.7236L17.2651 19.5097L20.0722 21.2149L19.9515 18.0356H21.4003L21.2795 21.2149L24.0866 19.5097L24.811 20.7236L21.853 22.1976L24.811 23.6717L24.0866 24.8856L21.2795 23.1803L21.4003 26.3597H19.9515Z" fill="#111827"/>
<path d="M30.9781 26.3597L31.0989 23.1803L28.2918 24.8856L27.5674 23.6717L30.5254 22.1976L27.5674 20.7236L28.2918 19.5097L31.0989 21.2149L30.9781 18.0356H32.4269L32.3062 21.2149L35.1133 19.5097L35.8377 20.7236L32.8797 22.1976L35.8377 23.6717L35.1133 24.8856L32.3062 23.1803L32.4269 26.3597H30.9781Z" fill="#111827"/>
<path d="M42.0053 26.3597L42.126 23.1803L39.319 24.8856L38.5946 23.6717L41.5525 22.1976L38.5946 20.7236L39.319 19.5097L42.126 21.2149L42.0053 18.0356H43.4541L43.3334 21.2149L46.1404 19.5097L46.8648 20.7236L43.9069 22.1976L46.8648 23.6717L46.1404 24.8856L43.3334 23.1803L43.4541 26.3597H42.0053Z" fill="#111827"/>
</svg>
