<svg width="152" height="152" viewBox="0 0 152 152" fill="none" xmlns="http://www.w3.org/2000/svg">
<circle cx="76" cy="76" r="75.5" stroke="#E5E7EB" stroke-dasharray="8 8"/>
<circle cx="76" cy="76" r="60" fill="#F3F5FF"/>
<rect x="40" y="40" width="72" height="72" rx="36" fill="#5766C7"/>
<path d="M71.5 85C71.1685 85 70.8505 85.1317 70.6161 85.3661C70.3817 85.6005 70.25 85.9185 70.25 86.25C70.25 86.5815 70.3817 86.8995 70.6161 87.1339C70.8505 87.3683 71.1685 87.5 71.5 87.5H76.5C76.8315 87.5 77.1495 87.3683 77.3839 87.1339C77.6183 86.8995 77.75 86.5815 77.75 86.25C77.75 85.9185 77.6183 85.6005 77.3839 85.3661C77.1495 85.1317 76.8315 85 76.5 85H71.5ZM68.375 57.5C67.2147 57.5 66.1019 57.9609 65.2814 58.7814C64.4609 59.6019 64 60.7147 64 61.875V88.125C64 90.54 65.96 92.5 68.375 92.5H79.625C80.7853 92.5 81.8981 92.0391 82.7186 91.2186C83.5391 90.3981 84 89.2853 84 88.125V61.875C84 60.7147 83.5391 59.6019 82.7186 58.7814C81.8981 57.9609 80.7853 57.5 79.625 57.5H68.375ZM66.5 61.875C66.5 61.3777 66.6975 60.9008 67.0492 60.5492C67.4008 60.1975 67.8777 60 68.375 60H79.625C80.1223 60 80.5992 60.1975 80.9508 60.5492C81.3025 60.9008 81.5 61.3777 81.5 61.875V88.125C81.5 88.6223 81.3025 89.0992 80.9508 89.4508C80.5992 89.8025 80.1223 90 79.625 90H68.375C67.8777 90 67.4008 89.8025 67.0492 89.4508C66.6975 89.0992 66.5 88.6223 66.5 88.125V61.875Z" fill="#BEC7FF"/>
<mask id="path-5-outside-1_2_10558" maskUnits="userSpaceOnUse" x="74.833" y="78.5834" width="22" height="17" fill="black">
<rect fill="white" x="74.833" y="78.5834" width="22" height="17"/>
<path d="M79.8122 80.5834C79.0221 80.5834 78.2643 80.8972 77.7056 81.456C77.1469 82.0147 76.833 82.7724 76.833 83.5625V90.4375C76.833 91.2277 77.1469 91.9854 77.7056 92.5441C78.2643 93.1028 79.0221 93.4167 79.8122 93.4167H92.1872C92.5784 93.4167 92.9658 93.3396 93.3273 93.1899C93.6887 93.0402 94.0171 92.8208 94.2938 92.5441C94.5704 92.2675 94.7898 91.9391 94.9396 91.5776C95.0893 91.2162 95.1663 90.8288 95.1663 90.4375V83.5625C95.1663 83.1713 95.0893 82.7839 94.9396 82.4225C94.7898 82.061 94.5704 81.7326 94.2938 81.456C94.0171 81.1793 93.6887 80.9599 93.3273 80.8101C92.9658 80.6604 92.5784 80.5834 92.1872 80.5834H79.8122ZM80.7563 85.3684L81.4163 86.0284L82.0763 85.3684C82.1393 85.3008 82.2152 85.2467 82.2995 85.2091C82.3838 85.1715 82.4749 85.1513 82.5672 85.1497C82.6595 85.148 82.7512 85.165 82.8368 85.1996C82.9224 85.2342 83.0002 85.2856 83.0655 85.3509C83.1307 85.4162 83.1822 85.494 83.2168 85.5796C83.2514 85.6652 83.2683 85.7569 83.2667 85.8492C83.2651 85.9415 83.2449 86.0325 83.2073 86.1169C83.1697 86.2012 83.1156 86.2771 83.048 86.34L82.3889 87L83.0489 87.6582C83.1128 87.7221 83.1636 87.7979 83.1982 87.8814C83.2328 87.9648 83.2506 88.0543 83.2507 88.1446C83.2507 88.235 83.233 88.3245 83.1984 88.408C83.1639 88.4915 83.1132 88.5673 83.0494 88.6312C82.9855 88.6952 82.9097 88.7459 82.8262 88.7805C82.7428 88.8151 82.6533 88.833 82.563 88.833C82.4726 88.833 82.3831 88.8153 82.2996 88.7808C82.2161 88.7462 82.1403 88.6956 82.0763 88.6317L81.4163 87.9717L80.7563 88.6317C80.626 88.7531 80.4536 88.8193 80.2755 88.8161C80.0974 88.813 79.9275 88.7408 79.8015 88.6149C79.6756 88.4889 79.6034 88.319 79.6003 88.1409C79.5971 87.9627 79.6632 87.7904 79.7847 87.66L80.4447 87L79.7847 86.34C79.6632 86.2097 79.5971 86.0373 79.6003 85.8592C79.6034 85.6811 79.6756 85.5112 79.8015 85.3852C79.9275 85.2593 80.0974 85.1871 80.2755 85.184C80.4536 85.1808 80.626 85.2469 80.7563 85.3684ZM85.798 85.3684L86.458 86.0284L87.118 85.3684C87.1809 85.3008 87.2568 85.2467 87.3412 85.2091C87.4255 85.1715 87.5166 85.1513 87.6089 85.1497C87.7012 85.148 87.7929 85.165 87.8785 85.1996C87.9641 85.2342 88.0418 85.2856 88.1071 85.3509C88.1724 85.4162 88.2239 85.494 88.2585 85.5796C88.293 85.6652 88.31 85.7569 88.3084 85.8492C88.3068 85.9415 88.2865 86.0325 88.249 86.1169C88.2114 86.2012 88.1572 86.2771 88.0897 86.34L87.4306 87L88.0906 87.6582C88.2196 87.7872 88.292 87.9621 88.292 88.1445C88.292 88.3269 88.2196 88.5018 88.0906 88.6308C87.9616 88.7598 87.7867 88.8322 87.6043 88.8322C87.4219 88.8322 87.247 88.7598 87.118 88.6308L86.458 87.9717L85.798 88.6317C85.7351 88.6993 85.6592 88.7534 85.5748 88.791C85.4905 88.8286 85.3995 88.8488 85.3072 88.8504C85.2148 88.852 85.1231 88.8351 85.0375 88.8005C84.9519 88.7659 84.8742 88.7144 84.8089 88.6492C84.7436 88.5839 84.6921 88.5061 84.6576 88.4205C84.623 88.3349 84.606 88.2432 84.6076 88.1509C84.6093 88.0586 84.6295 87.9675 84.667 87.8832C84.7046 87.7989 84.7588 87.723 84.8263 87.66L85.4863 87L84.8263 86.34C84.7049 86.2097 84.6388 86.0373 84.6419 85.8592C84.6451 85.6811 84.7172 85.5112 84.8432 85.3852C84.9691 85.2593 85.1391 85.1871 85.3172 85.184C85.4953 85.1808 85.6677 85.2469 85.798 85.3684ZM89.4372 89.0625C89.4372 88.8802 89.5096 88.7053 89.6385 88.5764C89.7675 88.4475 89.9423 88.375 90.1247 88.375H91.7288C91.9112 88.375 92.086 88.4475 92.215 88.5764C92.3439 88.7053 92.4163 88.8802 92.4163 89.0625C92.4163 89.2449 92.3439 89.4197 92.215 89.5487C92.086 89.6776 91.9112 89.75 91.7288 89.75H90.1247C89.9423 89.75 89.7675 89.6776 89.6385 89.5487C89.5096 89.4197 89.4372 89.2449 89.4372 89.0625Z"/>
</mask>
<path d="M79.8122 80.5834C79.0221 80.5834 78.2643 80.8972 77.7056 81.456C77.1469 82.0147 76.833 82.7724 76.833 83.5625V90.4375C76.833 91.2277 77.1469 91.9854 77.7056 92.5441C78.2643 93.1028 79.0221 93.4167 79.8122 93.4167H92.1872C92.5784 93.4167 92.9658 93.3396 93.3273 93.1899C93.6887 93.0402 94.0171 92.8208 94.2938 92.5441C94.5704 92.2675 94.7898 91.9391 94.9396 91.5776C95.0893 91.2162 95.1663 90.8288 95.1663 90.4375V83.5625C95.1663 83.1713 95.0893 82.7839 94.9396 82.4225C94.7898 82.061 94.5704 81.7326 94.2938 81.456C94.0171 81.1793 93.6887 80.9599 93.3273 80.8101C92.9658 80.6604 92.5784 80.5834 92.1872 80.5834H79.8122ZM80.7563 85.3684L81.4163 86.0284L82.0763 85.3684C82.1393 85.3008 82.2152 85.2467 82.2995 85.2091C82.3838 85.1715 82.4749 85.1513 82.5672 85.1497C82.6595 85.148 82.7512 85.165 82.8368 85.1996C82.9224 85.2342 83.0002 85.2856 83.0655 85.3509C83.1307 85.4162 83.1822 85.494 83.2168 85.5796C83.2514 85.6652 83.2683 85.7569 83.2667 85.8492C83.2651 85.9415 83.2449 86.0325 83.2073 86.1169C83.1697 86.2012 83.1156 86.2771 83.048 86.34L82.3889 87L83.0489 87.6582C83.1128 87.7221 83.1636 87.7979 83.1982 87.8814C83.2328 87.9648 83.2506 88.0543 83.2507 88.1446C83.2507 88.235 83.233 88.3245 83.1984 88.408C83.1639 88.4915 83.1132 88.5673 83.0494 88.6312C82.9855 88.6952 82.9097 88.7459 82.8262 88.7805C82.7428 88.8151 82.6533 88.833 82.563 88.833C82.4726 88.833 82.3831 88.8153 82.2996 88.7808C82.2161 88.7462 82.1403 88.6956 82.0763 88.6317L81.4163 87.9717L80.7563 88.6317C80.626 88.7531 80.4536 88.8193 80.2755 88.8161C80.0974 88.813 79.9275 88.7408 79.8015 88.6149C79.6756 88.4889 79.6034 88.319 79.6003 88.1409C79.5971 87.9627 79.6632 87.7904 79.7847 87.66L80.4447 87L79.7847 86.34C79.6632 86.2097 79.5971 86.0373 79.6003 85.8592C79.6034 85.6811 79.6756 85.5112 79.8015 85.3852C79.9275 85.2593 80.0974 85.1871 80.2755 85.184C80.4536 85.1808 80.626 85.2469 80.7563 85.3684ZM85.798 85.3684L86.458 86.0284L87.118 85.3684C87.1809 85.3008 87.2568 85.2467 87.3412 85.2091C87.4255 85.1715 87.5166 85.1513 87.6089 85.1497C87.7012 85.148 87.7929 85.165 87.8785 85.1996C87.9641 85.2342 88.0418 85.2856 88.1071 85.3509C88.1724 85.4162 88.2239 85.494 88.2585 85.5796C88.293 85.6652 88.31 85.7569 88.3084 85.8492C88.3068 85.9415 88.2865 86.0325 88.249 86.1169C88.2114 86.2012 88.1572 86.2771 88.0897 86.34L87.4306 87L88.0906 87.6582C88.2196 87.7872 88.292 87.9621 88.292 88.1445C88.292 88.3269 88.2196 88.5018 88.0906 88.6308C87.9616 88.7598 87.7867 88.8322 87.6043 88.8322C87.4219 88.8322 87.247 88.7598 87.118 88.6308L86.458 87.9717L85.798 88.6317C85.7351 88.6993 85.6592 88.7534 85.5748 88.791C85.4905 88.8286 85.3995 88.8488 85.3072 88.8504C85.2148 88.852 85.1231 88.8351 85.0375 88.8005C84.9519 88.7659 84.8742 88.7144 84.8089 88.6492C84.7436 88.5839 84.6921 88.5061 84.6576 88.4205C84.623 88.3349 84.606 88.2432 84.6076 88.1509C84.6093 88.0586 84.6295 87.9675 84.667 87.8832C84.7046 87.7989 84.7588 87.723 84.8263 87.66L85.4863 87L84.8263 86.34C84.7049 86.2097 84.6388 86.0373 84.6419 85.8592C84.6451 85.6811 84.7172 85.5112 84.8432 85.3852C84.9691 85.2593 85.1391 85.1871 85.3172 85.184C85.4953 85.1808 85.6677 85.2469 85.798 85.3684ZM89.4372 89.0625C89.4372 88.8802 89.5096 88.7053 89.6385 88.5764C89.7675 88.4475 89.9423 88.375 90.1247 88.375H91.7288C91.9112 88.375 92.086 88.4475 92.215 88.5764C92.3439 88.7053 92.4163 88.8802 92.4163 89.0625C92.4163 89.2449 92.3439 89.4197 92.215 89.5487C92.086 89.6776 91.9112 89.75 91.7288 89.75H90.1247C89.9423 89.75 89.7675 89.6776 89.6385 89.5487C89.5096 89.4197 89.4372 89.2449 89.4372 89.0625Z" fill="#5766C7"/>
<path d="M79.8122 80.5834V79.0834V80.5834ZM76.833 83.5625H75.333H76.833ZM95.1663 90.4375H93.6663H95.1663ZM92.1872 80.5834V82.0834V80.5834ZM80.7563 85.3684L81.817 84.3077L81.7983 84.289L81.7789 84.271L80.7563 85.3684ZM81.4163 86.0284L80.3557 87.089L81.4163 88.1497L82.477 87.089L81.4163 86.0284ZM82.0763 85.3684L83.137 86.429L83.1557 86.4103L83.1738 86.391L82.0763 85.3684ZM83.048 86.34L82.0254 85.2426L82.0057 85.261L81.9866 85.2801L83.048 86.34ZM82.3889 87L81.3275 85.9401L80.2669 87.0023L81.3297 88.0622L82.3889 87ZM83.0489 87.6582L84.1091 86.597L84.1081 86.5961L83.0489 87.6582ZM82.0763 88.6317L81.0157 89.6924L81.0162 89.6929L82.0763 88.6317ZM81.4163 87.9717L82.477 86.911L81.4163 85.8504L80.3557 86.911L81.4163 87.9717ZM80.7563 88.6317L81.7789 89.7291L81.7983 89.7111L81.817 89.6924L80.7563 88.6317ZM79.8015 88.6149L80.8622 87.5542L79.8015 88.6149ZM79.7847 87.66L78.724 86.5994L78.7053 86.6181L78.6873 86.6375L79.7847 87.66ZM80.4447 87L81.5053 88.0607L82.566 87L81.5053 85.9394L80.4447 87ZM79.7847 86.34L78.6873 87.3626L78.7053 87.382L78.724 87.4007L79.7847 86.34ZM86.458 86.0284L85.3973 87.089L86.458 88.1497L87.5187 87.089L86.458 86.0284ZM87.118 85.3684L88.1787 86.429L88.1974 86.4103L88.2154 86.391L87.118 85.3684ZM88.0897 86.34L87.0671 85.2426L87.0473 85.261L87.0283 85.2801L88.0897 86.34ZM87.4306 87L86.3692 85.9401L85.3085 87.0023L86.3714 88.0622L87.4306 87ZM88.0906 87.6582L89.1513 86.5975L89.1498 86.5961L88.0906 87.6582ZM88.292 88.1445H89.792H88.292ZM88.0906 88.6308L87.0299 87.5701L88.0906 88.6308ZM87.6043 88.8322V90.3322V88.8322ZM87.118 88.6308L88.1787 87.5701L88.1779 87.5694L87.118 88.6308ZM86.458 87.9717L87.5179 86.9103L86.4573 85.8511L85.3973 86.911L86.458 87.9717ZM85.798 88.6317L84.7373 87.571L84.7186 87.5898L84.7006 87.6091L85.798 88.6317ZM84.8263 87.66L85.8489 88.7575L85.8683 88.7394L85.887 88.7207L84.8263 87.66ZM85.4863 87L86.547 88.0607L87.6077 87L86.547 85.9394L85.4863 87ZM84.8263 86.34L83.7289 87.3626L83.747 87.382L83.7657 87.4007L84.8263 86.34ZM89.6385 88.5764L88.5779 87.5157L89.6385 88.5764ZM92.215 88.5764L93.2756 87.5157L92.215 88.5764ZM79.8122 79.0834C78.6242 79.0834 77.4849 79.5553 76.6449 80.3953L78.7662 82.5166C79.0436 82.2392 79.4199 82.0834 79.8122 82.0834V79.0834ZM76.6449 80.3953C75.8049 81.2353 75.333 82.3746 75.333 83.5625H78.333C78.333 83.1702 78.4888 82.794 78.7662 82.5166L76.6449 80.3953ZM75.333 83.5625V90.4375H78.333V83.5625H75.333ZM75.333 90.4375C75.333 91.6255 75.8049 92.7648 76.6449 93.6048L78.7662 91.4835C78.4888 91.2061 78.333 90.8298 78.333 90.4375H75.333ZM76.6449 93.6048C77.4849 94.4448 78.6242 94.9167 79.8122 94.9167V91.9167C79.4199 91.9167 79.0436 91.7609 78.7662 91.4835L76.6449 93.6048ZM79.8122 94.9167H92.1872V91.9167H79.8122V94.9167ZM92.1872 94.9167C92.7754 94.9167 93.3578 94.8008 93.9013 94.5758L92.7532 91.8041C92.5738 91.8784 92.3814 91.9167 92.1872 91.9167V94.9167ZM93.9013 94.5758C94.4447 94.3507 94.9385 94.0207 95.3544 93.6048L93.2331 91.4835C93.0958 91.6208 92.9327 91.7298 92.7532 91.8041L93.9013 94.5758ZM95.3544 93.6048C95.7704 93.1889 96.1003 92.6951 96.3254 92.1516L93.5537 91.0036C93.4794 91.1831 93.3705 91.3461 93.2331 91.4835L95.3544 93.6048ZM96.3254 92.1516C96.5505 91.6082 96.6663 91.0258 96.6663 90.4375H93.6663C93.6663 90.6318 93.6281 90.8241 93.5537 91.0036L96.3254 92.1516ZM96.6663 90.4375V83.5625H93.6663V90.4375H96.6663ZM96.6663 83.5625C96.6663 82.9743 96.5505 82.3919 96.3254 81.8484L93.5537 82.9965C93.6281 83.1759 93.6663 83.3683 93.6663 83.5625H96.6663ZM96.3254 81.8484C96.1003 81.305 95.7704 80.8112 95.3544 80.3953L93.2331 82.5166C93.3705 82.654 93.4794 82.817 93.5537 82.9965L96.3254 81.8484ZM95.3544 80.3953C94.9385 79.9794 94.4447 79.6494 93.9013 79.4243L92.7532 82.196C92.9327 82.2703 93.0958 82.3793 93.2331 82.5166L95.3544 80.3953ZM93.9013 79.4243C93.3578 79.1992 92.7754 79.0834 92.1872 79.0834V82.0834C92.3814 82.0834 92.5738 82.1216 92.7532 82.196L93.9013 79.4243ZM92.1872 79.0834H79.8122V82.0834H92.1872V79.0834ZM79.6957 86.429L80.3557 87.089L82.477 84.9677L81.817 84.3077L79.6957 86.429ZM82.477 87.089L83.137 86.429L81.0157 84.3077L80.3557 84.9677L82.477 87.089ZM83.1738 86.391C83.0994 86.4708 83.0097 86.5348 82.91 86.5792L81.689 83.8389C81.4207 83.9585 81.1792 84.1309 80.9789 84.3458L83.1738 86.391ZM82.91 86.5792C82.8103 86.6236 82.7028 86.6475 82.5937 86.6494L82.5407 83.6499C82.247 83.6551 81.9574 83.7194 81.689 83.8389L82.91 86.5792ZM82.5937 86.6494C82.4846 86.6514 82.3762 86.6313 82.275 86.5904L83.3986 83.8088C83.1262 83.6987 82.8345 83.6447 82.5407 83.6499L82.5937 86.6494ZM82.275 86.5904C82.1738 86.5496 82.0819 86.4887 82.0048 86.4116L84.1261 84.2903C83.9184 84.0825 83.671 83.9188 83.3986 83.8088L82.275 86.5904ZM82.0048 86.4116C81.9277 86.3344 81.8668 86.2425 81.826 86.1414L84.6076 85.0178C84.4976 84.7454 84.3338 84.498 84.1261 84.2903L82.0048 86.4116ZM81.826 86.1414C81.7851 86.0402 81.765 85.9318 81.767 85.8227L84.7665 85.8756C84.7717 85.5819 84.7176 85.2902 84.6076 85.0178L81.826 86.1414ZM81.767 85.8227C81.7689 85.7136 81.7928 85.606 81.8372 85.5064L84.5775 86.7274C84.697 86.459 84.7613 86.1694 84.7665 85.8756L81.767 85.8227ZM81.8372 85.5064C81.8816 85.4067 81.9456 85.317 82.0254 85.2426L84.0706 87.4375C84.2855 87.2372 84.4579 86.9957 84.5775 86.7274L81.8372 85.5064ZM81.9866 85.2801L81.3275 85.9401L83.4503 88.06L84.1094 87.4L81.9866 85.2801ZM81.3297 88.0622L81.9897 88.7203L84.1081 86.5961L83.4481 85.9379L81.3297 88.0622ZM81.9888 88.7194C81.9133 88.644 81.8535 88.5545 81.8126 88.456L84.5837 87.3067C84.4736 87.0413 84.3124 86.8001 84.1091 86.597L81.9888 88.7194ZM81.8126 88.456C81.7718 88.3575 81.7507 88.252 81.7507 88.1453L84.7507 88.1439C84.7505 87.8566 84.6938 87.5721 84.5837 87.3067L81.8126 88.456ZM81.7507 88.1453C81.7506 88.0387 81.7716 87.9331 81.8123 87.8346L84.5845 88.9813C84.6944 88.7158 84.7508 88.4313 84.7507 88.1439L81.7507 88.1453ZM81.8123 87.8346C81.8531 87.7361 81.9129 87.6465 81.9882 87.5711L84.1105 89.6914C84.3136 89.4881 84.4747 89.2469 84.5845 88.9813L81.8123 87.8346ZM81.9882 87.5711C82.0636 87.4957 82.1531 87.4358 82.2516 87.395L83.4009 90.1661C83.6663 90.056 83.9075 89.8947 84.1105 89.6914L81.9882 87.5711ZM82.2516 87.395C82.35 87.3541 82.4556 87.3331 82.5623 87.333L82.5637 90.333C82.851 90.3329 83.1355 90.2761 83.4009 90.1661L82.2516 87.395ZM82.5623 87.333C82.6689 87.333 82.7745 87.3539 82.873 87.3947L81.7263 90.1668C81.9918 90.2767 82.2763 90.3331 82.5637 90.333L82.5623 87.333ZM82.873 87.3947C82.9715 87.4354 83.0611 87.4952 83.1365 87.5705L81.0162 89.6929C81.2195 89.8959 81.4607 90.057 81.7263 90.1668L82.873 87.3947ZM83.137 87.571L82.477 86.911L80.3557 89.0324L81.0157 89.6924L83.137 87.571ZM80.3557 86.911L79.6957 87.571L81.817 89.6924L82.477 89.0324L80.3557 86.911ZM79.7338 87.5343C79.8878 87.3908 80.0915 87.3126 80.302 87.3164L80.2491 90.3159C80.8158 90.3259 81.3642 90.1155 81.7789 89.7291L79.7338 87.5343ZM80.302 87.3164C80.5125 87.3201 80.7133 87.4053 80.8622 87.5542L78.7409 89.6755C79.1416 90.0763 79.6824 90.3059 80.2491 90.3159L80.302 87.3164ZM80.8622 87.5542C81.011 87.7031 81.0963 87.9039 81.1 88.1144L78.1005 88.1673C78.1105 88.734 78.3401 89.2747 78.7409 89.6755L80.8622 87.5542ZM81.1 88.1144C81.1037 88.3249 81.0256 88.5286 80.8821 88.6826L78.6873 86.6375C78.3009 87.0521 78.0905 87.6006 78.1005 88.1673L81.1 88.1144ZM80.8453 88.7207L81.5053 88.0607L79.384 85.9394L78.724 86.5994L80.8453 88.7207ZM81.5053 85.9394L80.8453 85.2794L78.724 87.4007L79.384 88.0607L81.5053 85.9394ZM80.8821 85.3175C81.0256 85.4715 81.1037 85.6752 81.1 85.8857L78.1005 85.8328C78.0905 86.3995 78.3009 86.9479 78.6873 87.3626L80.8821 85.3175ZM81.1 85.8857C81.0963 86.0962 81.011 86.297 80.8622 86.4459L78.7409 84.3246C78.3401 84.7253 78.1105 85.2661 78.1005 85.8328L81.1 85.8857ZM80.8622 86.4459C80.7133 86.5947 80.5125 86.68 80.302 86.6837L80.2491 83.6842C79.6824 83.6942 79.1416 83.9238 78.7409 84.3246L80.8622 86.4459ZM80.302 86.6837C80.0915 86.6874 79.8878 86.6093 79.7338 86.4658L81.7789 84.271C81.3642 83.8846 80.8158 83.6742 80.2491 83.6842L80.302 86.6837ZM84.7373 86.429L85.3973 87.089L87.5187 84.9677L86.8587 84.3077L84.7373 86.429ZM87.5187 87.089L88.1787 86.429L86.0573 84.3077L85.3973 84.9677L87.5187 87.089ZM88.2154 86.391C88.141 86.4708 88.0513 86.5348 87.9517 86.5792L86.7307 83.8389C86.4624 83.9585 86.2209 84.1309 86.0206 84.3458L88.2154 86.391ZM87.9517 86.5792C87.852 86.6236 87.7444 86.6475 87.6353 86.6494L87.5824 83.6499C87.2887 83.6551 86.999 83.7194 86.7307 83.8389L87.9517 86.5792ZM87.6353 86.6494C87.5262 86.6514 87.4179 86.6313 87.3167 86.5904L88.4403 83.8088C88.1679 83.6987 87.8761 83.6447 87.5824 83.6499L87.6353 86.6494ZM87.3167 86.5904C87.2155 86.5496 87.1236 86.4887 87.0465 86.4116L89.1678 84.2903C88.9601 84.0825 88.7126 83.9188 88.4403 83.8088L87.3167 86.5904ZM87.0465 86.4116C86.9693 86.3344 86.9085 86.2425 86.8676 86.1414L89.6493 85.0178C89.5393 84.7454 89.3755 84.498 89.1678 84.2903L87.0465 86.4116ZM86.8676 86.1414C86.8268 86.0402 86.8067 85.9318 86.8086 85.8227L89.8081 85.8756C89.8133 85.5819 89.7593 85.2902 89.6493 85.0178L86.8676 86.1414ZM86.8086 85.8227C86.8105 85.7136 86.8344 85.606 86.8788 85.5064L89.6191 86.7274C89.7387 86.459 89.803 86.1694 89.8081 85.8756L86.8086 85.8227ZM86.8788 85.5064C86.9232 85.4067 86.9873 85.317 87.0671 85.2426L89.1123 87.4375C89.3272 87.2372 89.4996 86.9957 89.6191 86.7274L86.8788 85.5064ZM87.0283 85.2801L86.3692 85.9401L88.492 88.06L89.1511 87.4L87.0283 85.2801ZM86.3714 88.0622L87.0314 88.7203L89.1498 86.5961L88.4898 85.9379L86.3714 88.0622ZM87.0299 88.7189C86.8776 88.5665 86.792 88.3599 86.792 88.1445H89.792C89.792 87.5643 89.5615 87.0078 89.1513 86.5975L87.0299 88.7189ZM86.792 88.1445C86.792 87.9291 86.8776 87.7225 87.0299 87.5701L89.1513 89.6915C89.5615 89.2812 89.792 88.7247 89.792 88.1445H86.792ZM87.0299 87.5701C87.1823 87.4178 87.3889 87.3322 87.6043 87.3322V90.3322C88.1845 90.3322 88.741 90.1017 89.1513 89.6915L87.0299 87.5701ZM87.6043 87.3322C87.8197 87.3322 88.0263 87.4178 88.1787 87.5701L86.0573 89.6915C86.4676 90.1017 87.0241 90.3322 87.6043 90.3322V87.3322ZM88.1779 87.5694L87.5179 86.9103L85.3981 89.0331L86.0581 89.6922L88.1779 87.5694ZM85.3973 86.911L84.7373 87.571L86.8587 89.6924L87.5187 89.0324L85.3973 86.911ZM84.7006 87.6091C84.775 87.5293 84.8647 87.4653 84.9643 87.4209L86.1853 90.1612C86.4537 90.0416 86.6952 89.8692 86.8954 89.6543L84.7006 87.6091ZM84.9643 87.4209C85.064 87.3765 85.1716 87.3526 85.2807 87.3506L85.3336 90.3502C85.6273 90.345 85.917 90.2807 86.1853 90.1612L84.9643 87.4209ZM85.2807 87.3506C85.3898 87.3487 85.4982 87.3688 85.5993 87.4097L84.4758 90.1913C84.7481 90.3013 85.0399 90.3554 85.3336 90.3502L85.2807 87.3506ZM85.5993 87.4097C85.7005 87.4505 85.7924 87.5113 85.8695 87.5885L83.7482 89.7098C83.9559 89.9175 84.2034 90.0813 84.4758 90.1913L85.5993 87.4097ZM85.8695 87.5885C85.9467 87.6656 86.0075 87.7575 86.0484 87.8587L83.2667 88.9823C83.3768 89.2547 83.5405 89.5021 83.7482 89.7098L85.8695 87.5885ZM86.0484 87.8587C86.0893 87.9599 86.1093 88.0683 86.1074 88.1774L83.1079 88.1244C83.1027 88.4182 83.1567 88.7099 83.2667 88.9823L86.0484 87.8587ZM86.1074 88.1774C86.1055 88.2865 86.0816 88.394 86.0372 88.4937L83.2969 87.2727C83.1773 87.5411 83.113 87.8307 83.1079 88.1244L86.1074 88.1774ZM86.0372 88.4937C85.9928 88.5934 85.9287 88.6831 85.8489 88.7575L83.8038 86.5626C83.5888 86.7629 83.4165 87.0044 83.2969 87.2727L86.0372 88.4937ZM85.887 88.7207L86.547 88.0607L84.4257 85.9394L83.7657 86.5994L85.887 88.7207ZM86.547 85.9394L85.887 85.2794L83.7657 87.4007L84.4257 88.0607L86.547 85.9394ZM85.9238 85.3175C86.0673 85.4715 86.1454 85.6752 86.1417 85.8857L83.1422 85.8328C83.1322 86.3995 83.3425 86.9479 83.7289 87.3626L85.9238 85.3175ZM86.1417 85.8857C86.138 86.0962 86.0527 86.297 85.9038 86.4459L83.7825 84.3246C83.3817 84.7253 83.1522 85.2661 83.1422 85.8328L86.1417 85.8857ZM85.9038 86.4459C85.755 86.5947 85.5542 86.68 85.3437 86.6837L85.2907 83.6842C84.724 83.6942 84.1833 83.9238 83.7825 84.3246L85.9038 86.4459ZM85.3437 86.6837C85.1332 86.6874 84.9294 86.6093 84.7754 86.4658L86.8206 84.271C86.4059 83.8846 85.8575 83.6742 85.2907 83.6842L85.3437 86.6837ZM90.9372 89.0625C90.9372 89.278 90.8516 89.4847 90.6992 89.6371L88.5779 87.5157C88.1676 87.926 87.9372 88.4824 87.9372 89.0625H90.9372ZM90.6992 89.6371C90.5468 89.7894 90.3402 89.875 90.1247 89.875V86.875C89.5445 86.875 88.9881 87.1055 88.5779 87.5157L90.6992 89.6371ZM90.1247 89.875H91.7288V86.875H90.1247V89.875ZM91.7288 89.875C91.5134 89.875 91.3067 89.7894 91.1543 89.6371L93.2756 87.5157C92.8654 87.1055 92.309 86.875 91.7288 86.875V89.875ZM91.1543 89.6371C91.0019 89.4847 90.9163 89.278 90.9163 89.0625H93.9163C93.9163 88.4824 93.6859 87.926 93.2756 87.5157L91.1543 89.6371ZM90.9163 89.0625C90.9163 88.8471 91.0019 88.6404 91.1543 88.488L93.2756 90.6093C93.6859 90.1991 93.9163 89.6427 93.9163 89.0625H90.9163ZM91.1543 88.488C91.3067 88.3356 91.5134 88.25 91.7288 88.25V91.25C92.309 91.25 92.8654 91.0196 93.2756 90.6093L91.1543 88.488ZM91.7288 88.25H90.1247V91.25H91.7288V88.25ZM90.1247 88.25C90.3402 88.25 90.5468 88.3356 90.6992 88.488L88.5779 90.6093C88.9881 91.0196 89.5445 91.25 90.1247 91.25V88.25ZM90.6992 88.488C90.8516 88.6404 90.9372 88.847 90.9372 89.0625H87.9372C87.9372 89.6427 88.1676 90.1991 88.5779 90.6093L90.6992 88.488Z" fill="#5766C7" mask="url(#path-5-outside-1_2_10558)"/>
<path d="M79.8127 80.5834C79.0225 80.5834 78.2648 80.8972 77.7061 81.456C77.1474 82.0147 76.8335 82.7724 76.8335 83.5625V90.4375C76.8335 91.2277 77.1474 91.9854 77.7061 92.5441C78.2648 93.1028 79.0225 93.4167 79.8127 93.4167H92.1877C92.5789 93.4167 92.9663 93.3397 93.3277 93.1899C93.6892 93.0402 94.0176 92.8208 94.2943 92.5441C94.5709 92.2675 94.7903 91.9391 94.9401 91.5776C95.0898 91.2162 95.1668 90.8288 95.1668 90.4375V83.5625C95.1668 83.1713 95.0898 82.7839 94.9401 82.4225C94.7903 82.061 94.5709 81.7326 94.2943 81.456C94.0176 81.1793 93.6892 80.9599 93.3277 80.8101C92.9663 80.6604 92.5789 80.5834 92.1877 80.5834H79.8127ZM80.7568 85.3684L81.4168 86.0284L82.0768 85.3684C82.1398 85.3008 82.2157 85.2467 82.3 85.2091C82.3843 85.1715 82.4754 85.1513 82.5677 85.1497C82.66 85.148 82.7517 85.165 82.8373 85.1996C82.9229 85.2342 83.0007 85.2856 83.0659 85.3509C83.1312 85.4162 83.1827 85.494 83.2173 85.5796C83.2519 85.6652 83.2688 85.7569 83.2672 85.8492C83.2656 85.9415 83.2454 86.0325 83.2078 86.1169C83.1702 86.2012 83.116 86.2771 83.0485 86.34L82.3894 87L83.0494 87.6582C83.1133 87.7221 83.1641 87.7979 83.1987 87.8814C83.2333 87.9648 83.2511 88.0543 83.2512 88.1446C83.2512 88.235 83.2335 88.3245 83.1989 88.408C83.1644 88.4915 83.1137 88.5673 83.0499 88.6313C82.986 88.6952 82.9102 88.7459 82.8267 88.7805C82.7433 88.8151 82.6538 88.833 82.5634 88.833C82.4731 88.833 82.3836 88.8153 82.3001 88.7808C82.2166 88.7462 82.1408 88.6956 82.0768 88.6317L81.4168 87.9717L80.7568 88.6317C80.6265 88.7531 80.4541 88.8193 80.276 88.8161C80.0979 88.813 79.928 88.7408 79.802 88.6149C79.676 88.4889 79.6039 88.319 79.6008 88.1409C79.5976 87.9627 79.6637 87.7904 79.7852 87.66L80.4452 87L79.7852 86.34C79.6637 86.2097 79.5976 86.0373 79.6008 85.8592C79.6039 85.6811 79.676 85.5112 79.802 85.3852C79.928 85.2593 80.0979 85.1871 80.276 85.184C80.4541 85.1808 80.6265 85.2469 80.7568 85.3684ZM85.7985 85.3684L86.4585 86.0284L87.1185 85.3684C87.1814 85.3008 87.2573 85.2467 87.3417 85.2091C87.426 85.1715 87.517 85.1513 87.6094 85.1497C87.7017 85.148 87.7934 85.165 87.879 85.1996C87.9646 85.2342 88.0423 85.2856 88.1076 85.3509C88.1729 85.4162 88.2244 85.494 88.2589 85.5796C88.2935 85.6652 88.3105 85.7569 88.3089 85.8492C88.3072 85.9415 88.287 86.0325 88.2495 86.1169C88.2119 86.2012 88.1577 86.2771 88.0902 86.34L87.4311 87L88.0911 87.6582C88.2201 87.7872 88.2925 87.9621 88.2925 88.1445C88.2925 88.3269 88.2201 88.5018 88.0911 88.6308C87.9621 88.7598 87.7872 88.8322 87.6048 88.8322C87.4224 88.8322 87.2475 88.7598 87.1185 88.6308L86.4585 87.9717L85.7985 88.6317C85.7356 88.6993 85.6597 88.7534 85.5753 88.791C85.491 88.8286 85.4 88.8488 85.3076 88.8504C85.2153 88.852 85.1236 88.8351 85.038 88.8005C84.9524 88.7659 84.8747 88.7144 84.8094 88.6492C84.7441 88.5839 84.6926 88.5061 84.6581 88.4205C84.6235 88.3349 84.6065 88.2432 84.6081 88.1509C84.6097 88.0586 84.63 87.9675 84.6675 87.8832C84.7051 87.7989 84.7593 87.723 84.8268 87.66L85.4868 87L84.8268 86.34C84.7054 86.2097 84.6393 86.0373 84.6424 85.8592C84.6456 85.6811 84.7177 85.5112 84.8437 85.3852C84.9696 85.2593 85.1396 85.1871 85.3177 85.184C85.4958 85.1808 85.6682 85.2469 85.7985 85.3684ZM89.4377 89.0625C89.4377 88.8802 89.5101 88.7053 89.639 88.5764C89.768 88.4475 89.9428 88.375 90.1252 88.375H91.7293C91.9117 88.375 92.0865 88.4475 92.2155 88.5764C92.3444 88.7053 92.4168 88.8802 92.4168 89.0625C92.4168 89.2449 92.3444 89.4197 92.2155 89.5487C92.0865 89.6776 91.9117 89.75 91.7293 89.75H90.1252C89.9428 89.75 89.768 89.6776 89.639 89.5487C89.5101 89.4197 89.4377 89.2449 89.4377 89.0625Z" fill="#BEC7FF"/>
</svg>
