<svg width="20" height="20" viewBox="0 0 20 20" fill="none" xmlns="http://www.w3.org/2000/svg">
<path d="M18.3332 10H17.4998M1.6665 10H2.49984H1.6665ZM4.99984 6.66667H3.33317C3.11216 6.66667 2.9002 6.75446 2.74391 6.91074C2.58763 7.06702 2.49984 7.27899 2.49984 7.5V12.5C2.49984 12.721 2.58763 12.933 2.74391 13.0893C2.9002 13.2455 3.11216 13.3333 3.33317 13.3333H4.99984V6.66667ZM4.99984 5.83333V14.1667C4.99984 14.3877 5.08763 14.5996 5.24392 14.7559C5.4002 14.9122 5.61216 15 5.83317 15H6.6665C6.88752 15 7.09948 14.9122 7.25576 14.7559C7.41204 14.5996 7.49984 14.3877 7.49984 14.1667V5.83333C7.49984 5.61232 7.41204 5.40036 7.25576 5.24408C7.09948 5.0878 6.88752 5 6.6665 5H5.83317C5.61216 5 5.4002 5.0878 5.24392 5.24408C5.08763 5.40036 4.99984 5.61232 4.99984 5.83333ZM7.49984 10H12.4998H7.49984ZM12.4998 5.83333V14.1667C12.4998 14.3877 12.5876 14.5996 12.7439 14.7559C12.9002 14.9122 13.1122 15 13.3332 15H14.1665C14.3875 15 14.5995 14.9122 14.7558 14.7559C14.912 14.5996 14.9998 14.3877 14.9998 14.1667V5.83333C14.9998 5.61232 14.912 5.40036 14.7558 5.24408C14.5995 5.0878 14.3875 5 14.1665 5H13.3332C13.1122 5 12.9002 5.0878 12.7439 5.24408C12.5876 5.40036 12.4998 5.61232 12.4998 5.83333ZM14.9998 6.66667H16.6665C16.8875 6.66667 17.0995 6.75446 17.2558 6.91074C17.412 7.06702 17.4998 7.27899 17.4998 7.5V12.5C17.4998 12.721 17.412 12.933 17.2558 13.0893C17.0995 13.2455 16.8875 13.3333 16.6665 13.3333H14.9998V6.66667Z" stroke="black" stroke-width="1.5" stroke-linecap="round" stroke-linejoin="round"/>
</svg>
