<svg width="24" height="24" viewBox="0 0 24 24" fill="none" xmlns="http://www.w3.org/2000/svg">
<path d="M10 14.0004C10.3259 14.333 10.7148 14.5972 11.1441 14.7776C11.5734 14.958 12.0344 15.0509 12.5 15.0509C12.9656 15.0509 13.4266 14.958 13.8559 14.7776C14.2852 14.5972 14.6741 14.333 15 14.0004L19 10.0004C19.663 9.33734 20.0355 8.43806 20.0355 7.50038C20.0355 6.5627 19.663 5.66342 19 5.00038C18.337 4.33734 17.4377 3.96484 16.5 3.96484C15.5623 3.96484 14.663 4.33734 14 5.00038L13.5 5.50038" stroke="#9CA3AF" stroke-width="1.5" stroke-linecap="round" stroke-linejoin="round"/>
<path d="M13.9999 10.0007C13.674 9.66811 13.285 9.40388 12.8558 9.22349C12.4265 9.04311 11.9655 8.9502 11.4999 8.9502C11.0343 8.9502 10.5733 9.04311 10.144 9.22349C9.71474 9.40388 9.32577 9.66811 8.99989 10.0007L4.99989 14.0007C4.33685 14.6637 3.96436 15.563 3.96436 16.5007C3.96436 17.4384 4.33685 18.3377 4.99989 19.0007C5.66293 19.6637 6.56221 20.0362 7.49989 20.0362C8.43757 20.0362 9.33685 19.6637 9.99989 19.0007L10.4999 18.5007" stroke="#9CA3AF" stroke-width="1.5" stroke-linecap="round" stroke-linejoin="round"/>
</svg>
