<svg width="28" height="28" viewBox="0 0 28 28" fill="none" xmlns="http://www.w3.org/2000/svg">
<path d="M27.5836 5.75952C26.6094 6.19118 25.5629 6.48285 24.4628 6.61468C25.5979 5.93544 26.4472 4.86639 26.8521 3.60702C25.7856 4.2405 24.6183 4.68641 23.4011 4.92535C22.5825 4.05136 21.4983 3.47206 20.3168 3.2774C19.1353 3.08274 17.9225 3.28361 16.8669 3.84881C15.8112 4.41402 14.9717 5.31194 14.4786 6.40317C13.9855 7.4944 13.8666 8.71789 14.1401 9.88368C11.9791 9.77518 9.865 9.21349 7.93509 8.23507C6.00519 7.25665 4.30258 5.88337 2.93776 4.20435C2.47109 5.00935 2.20276 5.94268 2.20276 6.93668C2.20224 7.83151 2.4226 8.71263 2.84429 9.50187C3.26597 10.2911 3.87595 10.9641 4.6201 11.461C3.75708 11.4336 2.91311 11.2004 2.15843 10.7808V10.8508C2.15834 12.1059 2.59247 13.3223 3.38714 14.2937C4.18182 15.2651 5.2881 15.9316 6.51826 16.1802C5.71768 16.3969 4.87832 16.4288 4.0636 16.2735C4.41068 17.3534 5.08676 18.2977 5.99719 18.9743C6.90762 19.6508 8.00683 20.0257 9.14093 20.0465C7.21573 21.5578 4.83813 22.3776 2.3906 22.374C1.95704 22.3741 1.52385 22.3488 1.09326 22.2982C3.57765 23.8956 6.46966 24.7433 9.42326 24.74C19.4216 24.74 24.8874 16.459 24.8874 9.27702C24.8874 9.04368 24.8816 8.80802 24.8711 8.57468C25.9343 7.80582 26.852 6.85373 27.5813 5.76302L27.5836 5.75952Z" fill="white"/>
</svg>
