<svg width="22" height="16" viewBox="0 0 22 16" fill="none" xmlns="http://www.w3.org/2000/svg">
<g clip-path="url(#clip0_2_13892)">
<path d="M5.00106 15.9213V7.7215L2.3654 5.39503L0.00195312 4.104V14.4742C0.00195312 15.2749 0.674291 15.9213 1.50172 15.9213H5.00106Z" fill="#4285F4"/>
<path d="M16.999 15.9212H20.4984C21.3283 15.9212 21.9981 15.2724 21.9981 14.4742V4.104L19.3211 5.58272L16.999 7.72141V15.9212Z" fill="#34A853"/>
<path d="M5.00122 7.72151L4.64258 4.51762L5.00122 1.45117L11.0001 5.79223L16.999 1.45117L17.4002 4.35206L16.999 7.72151L11.0001 12.0626L5.00122 7.72151Z" fill="#EA4335"/>
<path d="M16.999 1.45108V7.72143L21.9981 4.10393V2.17457C21.9981 0.385135 19.881 -0.634969 18.3989 0.438192L16.999 1.45108Z" fill="#FBBC04"/>
<path d="M0.00195312 4.10397L2.30114 5.7678L5.00106 7.72146V1.45112L3.60122 0.43823C2.11649 -0.635013 0.00195312 0.385173 0.00195312 2.17452V4.10389V4.10397Z" fill="#C5221F"/>
</g>
<defs>
<clipPath id="clip0_2_13892">
<rect width="22" height="16" fill="white"/>
</clipPath>
</defs>
</svg>
