<svg width="122" height="88" viewBox="0 0 122 88" fill="none" xmlns="http://www.w3.org/2000/svg">
<g filter="url(#filter0_d_0_702)">
<path d="M99.6864 12H18.3136C15.9313 12 14 13.9312 14 16.3136V63.5374C14 65.9197 15.9313 67.8509 18.3136 67.8509H99.6864C102.069 67.8509 104 65.9197 104 63.5374V16.3136C104 13.9312 102.069 12 99.6864 12Z" fill="#5766C7"/>
</g>
<path opacity="0.4" d="M39.918 28.3586H24.1442C22.3541 28.3586 20.903 29.8098 20.903 31.5999V39.7092C20.903 41.4993 22.3541 42.9504 24.1442 42.9504H39.918C41.7081 42.9504 43.1592 41.4993 43.1592 39.7092V31.5999C43.1592 29.8098 41.7081 28.3586 39.918 28.3586Z" fill="#98A6FF"/>
<path opacity="0.4" d="M81.6217 41.7076C84.9664 41.7076 87.6778 38.9962 87.6778 35.6515C87.6778 32.3068 84.9664 29.5955 81.6217 29.5955C78.2771 29.5955 75.5657 32.3068 75.5657 35.6515C75.5657 38.9962 78.2771 41.7076 81.6217 41.7076Z" fill="#98A6FF"/>
<path opacity="0.4" d="M91.0408 41.7076C94.3855 41.7076 97.0968 38.9962 97.0968 35.6515C97.0968 32.3068 94.3855 29.5955 91.0408 29.5955C87.6961 29.5955 84.9847 32.3068 84.9847 35.6515C84.9847 38.9962 87.6961 41.7076 91.0408 41.7076Z" fill="#98A6FF"/>
<g opacity="0.54">
<path opacity="0.4" d="M35.7733 53.2957H22.9028C21.7983 53.2957 20.9028 54.1911 20.9028 55.2957V55.6214C20.9028 56.726 21.7983 57.6214 22.9028 57.6214H35.7733C36.8778 57.6214 37.7733 56.726 37.7733 55.6214V55.2957C37.7733 54.1911 36.8778 53.2957 35.7733 53.2957Z" fill="#98A6FF"/>
<path opacity="0.4" d="M55.5499 53.2957H42.6794C41.5749 53.2957 40.6794 54.1911 40.6794 55.2957V55.6214C40.6794 56.726 41.5749 57.6214 42.6794 57.6214H55.5499C56.6544 57.6214 57.5499 56.726 57.5499 55.6214V55.2957C57.5499 54.1911 56.6544 53.2957 55.5499 53.2957Z" fill="#98A6FF"/>
<path opacity="0.4" d="M75.3265 53.2957H62.4561C61.3515 53.2957 60.4561 54.1911 60.4561 55.2957V55.6214C60.4561 56.726 61.3515 57.6214 62.4561 57.6214H75.3265C76.4311 57.6214 77.3265 56.726 77.3265 55.6214V55.2957C77.3265 54.1911 76.4311 53.2957 75.3265 53.2957Z" fill="#98A6FF"/>
<path opacity="0.4" d="M95.1032 53.2957H82.2328C81.1282 53.2957 80.2328 54.1911 80.2328 55.2957V55.6214C80.2328 56.726 81.1282 57.6214 82.2328 57.6214H95.1032C96.2078 57.6214 97.1032 56.726 97.1032 55.6214V55.2957C97.1032 54.1911 96.2078 53.2957 95.1032 53.2957Z" fill="#98A6FF"/>
</g>
<defs>
<filter id="filter0_d_0_702" x="0" y="0" width="122" height="87.8508" filterUnits="userSpaceOnUse" color-interpolation-filters="sRGB">
<feFlood flood-opacity="0" result="BackgroundImageFix"/>
<feColorMatrix in="SourceAlpha" type="matrix" values="0 0 0 0 0 0 0 0 0 0 0 0 0 0 0 0 0 0 127 0" result="hardAlpha"/>
<feOffset dx="2" dy="4"/>
<feGaussianBlur stdDeviation="8"/>
<feComposite in2="hardAlpha" operator="out"/>
<feColorMatrix type="matrix" values="0 0 0 0 0.117647 0 0 0 0 0.415686 0 0 0 0 0.572549 0 0 0 0.1 0"/>
<feBlend mode="normal" in2="BackgroundImageFix" result="effect1_dropShadow_0_702"/>
<feBlend mode="normal" in="SourceGraphic" in2="effect1_dropShadow_0_702" result="shape"/>
</filter>
</defs>
</svg>
