<svg width="32" height="24" viewBox="0 0 32 24" fill="none" xmlns="http://www.w3.org/2000/svg">
<mask id="mask0_2_8656" style="mask-type:alpha" maskUnits="userSpaceOnUse" x="0" y="0" width="32" height="24">
<rect width="32" height="24" rx="6" fill="white"/>
</mask>
<g mask="url(#mask0_2_8656)">
<path fill-rule="evenodd" clip-rule="evenodd" d="M0 0V24H32V0H0Z" fill="#F7FCFF"/>
<mask id="mask1_2_8656" style="mask-type:alpha" maskUnits="userSpaceOnUse" x="0" y="0" width="32" height="24">
<path fill-rule="evenodd" clip-rule="evenodd" d="M0 0V24H32V0H0Z" fill="white"/>
</mask>
<g mask="url(#mask1_2_8656)">
<path fill-rule="evenodd" clip-rule="evenodd" d="M0 0V12H32V0H0Z" fill="#E31D1C"/>
<path fill-rule="evenodd" clip-rule="evenodd" d="M8.86852 10.59C8.86852 10.59 6.04283 9.45355 6.04283 6.37448C6.04283 3.29541 8.86852 2.19563 8.86852 2.19563C7.49519 1.84796 3.85107 2.15892 3.85107 6.37448C3.85107 10.59 7.44012 11.385 8.86852 10.59ZM9.59249 10.0811L10.4031 9.59172L11.2316 10.0811L11.0288 9.12613L11.7023 8.37279H10.7898L10.4031 7.4811L10.0164 8.37279L9.10234 8.41144L9.77739 9.12613L9.59249 10.0811ZM13.3494 9.53708L12.5388 10.0264L12.7237 9.07149L12.0486 8.35679L12.9627 8.31815L13.3494 7.42645L13.7361 8.31815H14.6486L13.9751 9.07149L14.1779 10.0264L13.3494 9.53708ZM11.2873 5.77034L12.0979 5.28097L12.9264 5.77034L12.7236 4.81538L13.3971 4.06204H12.4846L12.0979 3.17034L11.7112 4.06204L10.7971 4.10068L11.4722 4.81538L11.2873 5.77034ZM9.36991 7.22313L8.55928 7.7125L8.74418 6.75754L8.06913 6.04284L8.98319 6.0042L9.36991 5.1125L9.75663 6.0042H10.6691L9.99563 6.75754L10.1984 7.7125L9.36991 7.22313ZM13.9177 7.66865L14.7283 7.17927L15.5568 7.66865L15.354 6.71368L16.0275 5.96035H15.115L14.7283 5.06865L14.3416 5.96035L13.4275 5.99899L14.1026 6.71368L13.9177 7.66865Z" fill="#F1F9FF"/>
</g>
</g>
</svg>
