<svg width="16" height="16" viewBox="0 0 16 16" fill="none" xmlns="http://www.w3.org/2000/svg">
<path d="M8 9.33331C9.10457 9.33331 10 8.43788 10 7.33331C10 6.22874 9.10457 5.33331 8 5.33331C6.89543 5.33331 6 6.22874 6 7.33331C6 8.43788 6.89543 9.33331 8 9.33331Z" stroke="#5766C7" stroke-width="1.5" stroke-linecap="round" stroke-linejoin="round"/>
<path d="M11.7712 11.1047L8.94251 13.9333C8.6925 14.1831 8.35356 14.3234 8.00017 14.3234C7.64678 14.3234 7.30785 14.1831 7.05784 13.9333L4.22851 11.1047C3.48265 10.3588 2.97473 9.40845 2.76896 8.3739C2.5632 7.33934 2.66883 6.267 3.07251 5.29247C3.47618 4.31795 4.15977 3.48501 5.03683 2.89899C5.91388 2.31297 6.94502 2.00018 7.99984 2.00018C9.05466 2.00018 10.0858 2.31297 10.9629 2.89899C11.8399 3.48501 12.5235 4.31795 12.9272 5.29247C13.3308 6.267 13.4365 7.33934 13.2307 8.3739C13.0249 9.40845 12.517 10.3588 11.7712 11.1047V11.1047Z" stroke="#5766C7" stroke-width="1.5" stroke-linecap="round" stroke-linejoin="round"/>
</svg>
