<svg width="47" height="105" viewBox="0 0 47 105" fill="none" xmlns="http://www.w3.org/2000/svg">
<path fill-rule="evenodd" clip-rule="evenodd" d="M9.70329 52.3264V52.246C9.93734 50.7223 8.98348 49.2676 7.49272 48.8749C6.00197 48.4822 4.45524 49.2781 3.90821 50.7194V50.7998C3.81107 51.1738 3.49791 51.4523 3.11509 51.5051C2.73228 51.5579 2.35542 51.3746 2.16065 51.0408C2.03046 50.8234 1.9942 50.5624 2.06022 50.3177C2.20443 49.763 1.87169 49.1964 1.317 49.0522C0.762315 48.908 0.195742 49.2407 0.0515243 49.7954C-0.228829 51.2974 0.659463 52.7715 2.11844 53.2253C3.57741 53.6792 5.14512 52.9691 5.76625 51.5731C5.79144 51.5181 5.81161 51.461 5.82651 51.4024C5.99499 50.9392 6.48851 50.6806 6.96524 50.8056C7.44197 50.9307 7.74502 51.3982 7.66447 51.8845C7.66447 51.8845 7.66447 51.9347 7.66447 51.9648C7.42543 53.2451 8.03614 54.5341 9.17835 55.1601C10.3206 55.786 11.7356 55.6071 12.6862 54.7167C13.011 54.3949 13.2583 54.0033 13.4093 53.5718C13.4334 53.5232 13.4536 53.4729 13.4696 53.4211C13.5287 53.064 13.7849 52.7711 14.1309 52.6649C14.4769 52.5587 14.8532 52.6574 15.1025 52.9198C15.3519 53.1822 15.4313 53.563 15.3075 53.9032C15.1633 54.4579 15.4961 55.0244 16.0508 55.1687C16.6054 55.3129 17.172 54.9801 17.3162 54.4254C17.3162 54.3585 17.3162 54.2915 17.3162 54.2246C17.5154 52.7132 16.5543 51.2912 15.0776 50.9125C13.601 50.5337 12.0741 51.3175 11.5212 52.7381V52.8185C11.4825 53.1945 11.2256 53.5122 10.866 53.6286C10.5064 53.745 10.112 53.6383 9.86031 53.3563C9.60859 53.0744 9.54701 52.6705 9.70329 52.3264Z" fill="#CDDAE7"/>
<rect x="42.8887" y="97.6295" width="5.21256" height="5.21256" transform="rotate(43.99 42.8887 97.6295)" fill="#CDDAE7"/>
<path fill-rule="evenodd" clip-rule="evenodd" d="M35.662 5.52481L34.0389 2.81956L35.5706 0.053343L38.7255 0L40.3562 2.70525L38.8245 5.47147L35.662 5.52481Z" fill="#CDDAE7"/>
</svg>
