<svg width="16" height="16" viewBox="0 0 16 16" fill="none" xmlns="http://www.w3.org/2000/svg">
<path d="M8 14C7.21207 14 6.43185 13.8448 5.7039 13.5433C4.97595 13.2417 4.31451 12.7998 3.75736 12.2426C3.20021 11.6855 2.75825 11.0241 2.45672 10.2961C2.15519 9.56815 2 8.78793 2 8C2 7.21207 2.15519 6.43185 2.45672 5.7039C2.75825 4.97595 3.20021 4.31451 3.75736 3.75736C4.31451 3.20021 4.97595 2.75825 5.7039 2.45672C6.43185 2.15519 7.21207 2 8 2C9.5913 2 11.1174 2.5619 12.2426 3.5621C13.3679 4.56229 14 5.91885 14 7.33333C14 8.04058 13.6839 8.71885 13.1213 9.21895C12.5587 9.71905 11.7956 10 11 10H9.33333C9.03591 9.99521 8.74542 10.09 8.50808 10.2693C8.27074 10.4487 8.10018 10.7022 8.02354 10.9896C7.94689 11.277 7.96856 11.5818 8.0851 11.8555C8.20164 12.1292 8.40635 12.3561 8.66667 12.5C8.79978 12.6228 8.89106 12.7843 8.92769 12.9616C8.96433 13.139 8.94447 13.3234 8.87091 13.4889C8.79735 13.6544 8.67379 13.7927 8.51758 13.8844C8.36137 13.9761 8.18037 14.0165 8 14" stroke="#111827" stroke-width="1.5" stroke-linecap="round" stroke-linejoin="round"/>
<path d="M4.99984 7.33317C5.18393 7.33317 5.33317 7.18393 5.33317 6.99984C5.33317 6.81574 5.18393 6.6665 4.99984 6.6665C4.81574 6.6665 4.6665 6.81574 4.6665 6.99984C4.6665 7.18393 4.81574 7.33317 4.99984 7.33317Z" fill="#111827" stroke="#111827" stroke-width="1.5" stroke-linecap="round" stroke-linejoin="round"/>
<path d="M7.99984 5.33317C8.18393 5.33317 8.33317 5.18393 8.33317 4.99984C8.33317 4.81574 8.18393 4.6665 7.99984 4.6665C7.81574 4.6665 7.6665 4.81574 7.6665 4.99984C7.6665 5.18393 7.81574 5.33317 7.99984 5.33317Z" fill="#111827" stroke="#111827" stroke-width="1.5" stroke-linecap="round" stroke-linejoin="round"/>
<path d="M10.9998 7.33317C11.1839 7.33317 11.3332 7.18393 11.3332 6.99984C11.3332 6.81574 11.1839 6.6665 10.9998 6.6665C10.8157 6.6665 10.6665 6.81574 10.6665 6.99984C10.6665 7.18393 10.8157 7.33317 10.9998 7.33317Z" fill="#111827" stroke="#111827" stroke-width="1.5" stroke-linecap="round" stroke-linejoin="round"/>
</svg>
