<svg width="16" height="16" viewBox="0 0 16 16" fill="none" xmlns="http://www.w3.org/2000/svg">
<path d="M14.0998 4.11341C13.8265 3.96675 13.2532 3.81341 12.4732 4.36008L11.4932 5.05341C11.4198 2.98008 10.5198 2.16675 8.33317 2.16675H4.33317C2.05317 2.16675 1.1665 3.05341 1.1665 5.33341V10.6667C1.1665 12.2001 1.99984 13.8334 4.33317 13.8334H8.33317C10.5198 13.8334 11.4198 13.0201 11.4932 10.9467L12.4732 11.6401C12.8865 11.9334 13.2465 12.0267 13.5332 12.0267C13.7798 12.0267 13.9732 11.9534 14.0998 11.8867C14.3732 11.7467 14.8332 11.3667 14.8332 10.4134V5.58675C14.8332 4.63341 14.3732 4.25341 14.0998 4.11341ZM7.33317 7.58675C6.6465 7.58675 6.07984 7.02675 6.07984 6.33341C6.07984 5.64008 6.6465 5.08008 7.33317 5.08008C8.01984 5.08008 8.5865 5.64008 8.5865 6.33341C8.5865 7.02675 8.01984 7.58675 7.33317 7.58675Z" fill="white"/>
</svg>
